<svg data-v-fde0c5aa="" xmlns="http://www.w3.org/2000/svg" viewBox="0 0 300 300" class="iconLeft"><!----><defs data-v-fde0c5aa=""><!----></defs><rect data-v-fde0c5aa="" fill="#00acff" x="0" y="0" width="300px" height="300px" class="logo-background-square"></rect><defs data-v-fde0c5aa=""><!----></defs><g data-v-fde0c5aa="" id="fd1df8be-ad9a-483c-ae44-81d5f635e6c5" fill="#ffffff" transform="matrix(4.144746310488379,0,0,4.144746310488379,159.5679687952635,112.01340022248353)"><path d="M8.12 13.44C8.12 13.75 7.87 14 7.56 14C7.25 14 7 13.75 7 13.44L7 6.52C7 6.20 6.87 5.89 6.66 5.67C6.45 5.46 6.19 5.33 5.91 5.33C5.63 5.33 5.36 5.46 5.17 5.67C5.10 5.74 5.04 5.82 5.00 5.91C4.89 5.49 4.69 5.12 4.42 4.82C4.82 4.44 5.33 4.21 5.91 4.21C7.13 4.21 8.12 5.25 8.12 6.52ZM4.83 6.54L4.83 6.59C4.80 6.89 4.56 7.11 4.27 7.11C3.98 7.11 3.74 6.89 3.71 6.59L3.71 6.54C3.71 5.88 3.22 5.35 2.63 5.35C2.03 5.35 1.54 5.88 1.54 6.54L1.54 6.59C1.51 6.89 1.27 7.11 0.98 7.11C0.69 7.11 0.45 6.89 0.42 6.59L0.42 6.54C0.42 5.26 1.41 4.23 2.63 4.23C3.28 4.23 3.86 4.52 4.27 5.00C4.61 5.39 4.82 5.91 4.83 6.47ZM0.98 7.35C1.20 7.35 1.40 7.25 1.54 7.11L1.54 13.44C1.54 13.75 1.29 14 0.98 14C0.67 14 0.42 13.75 0.42 13.44L0.42 7.11C0.57 7.25 0.77 7.35 0.98 7.35ZM4.83 13.44C4.83 13.75 4.58 14 4.27 14C3.96 14 3.71 13.75 3.71 13.44L3.71 7.11C3.85 7.25 4.05 7.35 4.27 7.35C4.48 7.35 4.69 7.25 4.83 7.11ZM8.96 6.52C8.96 6.27 9.00 6.05 9.06 5.82C9.34 4.89 10.18 4.21 11.16 4.20L11.17 4.20C12.38 4.20 13.37 5.25 13.37 6.52C13.37 6.61 13.34 6.69 13.31 6.76C13.22 6.96 13.03 7.08 12.81 7.08C12.59 7.08 12.40 6.96 12.31 6.76C12.26 6.69 12.25 6.61 12.25 6.52C12.25 6.20 12.12 5.89 11.91 5.67C11.72 5.45 11.45 5.32 11.17 5.32C10.89 5.32 10.61 5.45 10.42 5.67C10.21 5.89 10.08 6.20 10.08 6.52C10.08 6.61 10.07 6.69 10.02 6.76C9.93 6.96 9.74 7.08 9.52 7.08C9.30 7.08 9.11 6.96 9.02 6.76C8.99 6.69 8.96 6.61 8.96 6.52ZM10.08 13.48C10.08 13.55 10.07 13.62 10.05 13.68C9.97 13.89 9.76 14.04 9.52 14.04C9.21 14.04 8.96 13.79 8.96 13.48L8.96 7.08C9.10 7.22 9.31 7.32 9.52 7.32C9.74 7.32 9.94 7.22 10.08 7.08ZM13.37 11.69C13.37 12.96 12.38 14 11.17 14C10.85 14 10.54 13.92 10.26 13.79C10.30 13.69 10.32 13.59 10.32 13.48L10.32 12.43C10.35 12.47 10.39 12.50 10.42 12.54C10.61 12.75 10.89 12.88 11.17 12.88C11.45 12.88 11.72 12.75 11.91 12.54C12.12 12.31 12.25 12.01 12.25 11.69L12.25 7.08C12.39 7.22 12.59 7.32 12.81 7.32C13.02 7.32 13.23 7.22 13.37 7.08ZM18.62 8.96C18.62 9.03 18.61 9.09 18.59 9.14C18.52 9.37 18.30 9.52 18.06 9.52C17.75 9.52 17.50 9.27 17.50 8.96C17.50 8.93 17.50 8.90 17.49 8.88C17.47 8.58 17.36 8.32 17.16 8.11C16.95 7.90 16.69 7.77 16.41 7.77C16.13 7.77 15.86 7.90 15.67 8.11C15.47 8.32 15.36 8.58 15.33 8.88L15.33 8.96C15.33 9.27 15.08 9.52 14.77 9.52C14.52 9.52 14.31 9.37 14.24 9.14C14.22 9.09 14.21 9.03 14.21 8.96L14.21 8.88C14.21 8.78 14.22 8.69 14.24 8.60C14.41 7.50 15.32 6.65 16.41 6.65C17.51 6.65 18.42 7.50 18.59 8.60C18.61 8.69 18.61 8.78 18.62 8.88ZM18.62 11.91C18.62 12.53 18.38 13.08 17.95 13.45C17.54 13.80 17.00 14 16.41 14C15.20 14 14.21 12.96 14.21 11.69L14.21 9.53C14.27 9.58 14.32 9.63 14.38 9.66C14.49 9.73 14.63 9.76 14.77 9.76C14.99 9.76 15.19 9.67 15.33 9.53C15.39 9.48 15.43 9.42 15.47 9.35C15.51 9.45 15.58 9.55 15.67 9.63C15.86 9.84 16.13 9.97 16.41 9.97C16.69 9.97 16.95 9.84 17.16 9.63C17.25 9.55 17.30 9.45 17.36 9.35C17.50 9.60 17.75 9.76 18.06 9.76C18.20 9.76 18.33 9.73 18.45 9.66C18.12 10.50 17.33 11.09 16.41 11.09C16.02 11.09 15.65 10.98 15.33 10.79L15.33 11.69C15.33 12.01 15.44 12.32 15.67 12.54C15.86 12.75 16.13 12.88 16.41 12.88C16.73 12.88 17.01 12.78 17.21 12.61C17.40 12.45 17.50 12.21 17.50 11.91C17.50 11.61 17.75 11.35 18.06 11.35C18.37 11.35 18.62 11.61 18.62 11.91ZM19.32 7.20C19.31 6.89 19.54 6.62 19.85 6.61C20.16 6.59 20.43 6.83 20.44 7.14L20.52 9.03C20.38 8.90 20.20 8.82 19.99 8.82L19.95 8.82C19.74 8.83 19.56 8.92 19.40 9.07ZM24.15 9.09C24.01 8.93 23.81 8.85 23.60 8.83L23.56 8.83C23.37 8.83 23.17 8.90 23.03 9.03L23.11 7.14C23.13 6.83 23.39 6.59 23.70 6.61C24.01 6.62 24.25 6.89 24.23 7.20ZM21.78 14.13C21.60 14.13 21.42 14.04 21.32 13.89L19.71 11.56C19.66 11.47 19.63 11.37 19.61 11.27L19.43 9.65C19.42 9.34 19.66 9.07 19.96 9.06C20.27 9.04 20.54 9.28 20.55 9.59L20.73 11.06L21.78 12.59L22.83 11.05L23.00 9.60C23.02 9.30 23.28 9.06 23.59 9.07C23.90 9.09 24.14 9.35 24.12 9.66L23.94 11.26C23.94 11.37 23.90 11.47 23.84 11.55L22.25 13.89C22.13 14.04 21.97 14.13 21.78 14.13Z"></path></g><defs data-v-fde0c5aa=""><!----></defs><g data-v-fde0c5aa="" id="2d0cc043-0566-40e4-b599-9ed647353e7f" stroke="none" fill="#010033" transform="matrix(1.203430692387128,0,0,1.203430692387128,33.98284653806436,89.76829017344522)"><path d="M30.3 42.8c1.4-1.4 2.2-3.3 2.2-5.3s-.8-3.9-2.2-5.3C28.9 30.8 27 30 25 30s-3.9.8-5.3 2.2L7.2 44.7C5.8 46.1 5 48 5 50s.8 3.9 2.2 5.3l12.5 12.5C21.1 69.2 23 70 25 70s3.9-.8 5.3-2.2c1.4-1.4 2.2-3.3 2.2-5.3s-.8-3.9-2.2-5.3L25 51.9 23.1 50l1.9-1.9 5.3-5.3zm-12.5 9l9 9c.5.5.7 1.1.7 1.8s-.3 1.3-.7 1.8c-.9.9-2.6.9-3.5 0L10.7 51.8c-.4-.5-.7-1.1-.7-1.8s.3-1.3.7-1.8l12.5-12.5c.5-.5 1.1-.7 1.8-.7s1.3.3 1.8.7c.5.5.7 1.1.7 1.8s-.3 1.3-.7 1.8l-9 9c-1 .9-1 2.5 0 3.5zM80.3 32.2C78.9 30.8 77 30 75 30s-3.9.8-5.3 2.2c-1.4 1.4-2.2 3.3-2.2 5.3s.8 3.9 2.2 5.3l5.3 5.3 1.9 1.9-1.9 1.9-5.3 5.3c-1.4 1.4-2.2 3.3-2.2 5.3s.8 3.9 2.2 5.3C71.1 69.2 73 70 75 70s3.9-.8 5.3-2.2l12.5-12.5C94.2 53.9 95 52 95 50s-.8-3.9-2.2-5.3L80.3 32.2zm9 19.6L76.8 64.3c-.9.9-2.6.9-3.5 0-.5-.5-.7-1.1-.7-1.8s.3-1.3.7-1.8l9-9c1-1 1-2.6 0-3.5l-9-9c-.5-.5-.7-1.1-.7-1.8s.3-1.3.7-1.8c.5-.5 1.1-.7 1.8-.7s1.3.3 1.8.7l12.5 12.5c.5.5.7 1.1.7 1.8s-.4 1.4-.8 1.9zM43.2 75.4c.6.2 1.3.3 1.9.3 3.4 0 6.4-2.3 7.2-5.6L62 33.9c.5-1.9.3-4-.7-5.7-1-1.7-2.6-3-4.6-3.5-.6-.2-1.3-.3-1.9-.3-3.4 0-6.4 2.3-7.2 5.6l-9.7 36.2c-.5 1.9-.3 4 .7 5.7 1.1 1.7 2.7 2.9 4.6 3.5zm-.5-7.9l9.7-36.2c.3-1.1 1.3-1.9 2.4-1.9.2 0 .4 0 .6.1.6.2 1.2.6 1.5 1.2.3.6.4 1.3.2 1.9l-9.7 36.2c-.3 1.3-1.7 2.1-3.1 1.8-.6-.2-1.2-.6-1.5-1.2-.2-.6-.2-1.3-.1-1.9z"></path></g><!----></svg>